<svg width="37" height="37" viewBox="0 0 37 37" fill="none" xmlns="http://www.w3.org/2000/svg">
<path d="M0.437195 18.5C0.437195 15.259 1.308 12.2128 2.8267 9.53523L10.4759 22.8329C12.0015 25.5591 14.9205 27.4022 18.2714 27.4022C19.2676 27.4022 20.1593 27.2422 21.1137 26.9432L15.7983 36.1374C7.11804 34.9342 0.437195 27.4926 0.437195 18.5ZM25.8718 23.0624C26.7287 21.727 27.1885 20.1066 27.1885 18.5C27.1885 15.8433 26.0181 13.4577 24.172 11.8234H34.8098C35.6457 13.882 36.1055 16.1423 36.1055 18.5C36.1055 28.3341 28.122 36.2418 18.2714 36.3043L25.8718 23.0624ZM33.723 9.59782H18.2714C13.8895 9.59782 10.3505 12.6649 9.52844 16.7404L4.21302 7.54615C7.47333 3.37326 12.5589 0.695648 18.2714 0.695648C24.8756 0.695648 30.6369 4.27738 33.723 9.59782ZM12.1409 18.5C12.1409 15.12 14.8857 12.3798 18.2714 12.3798C21.6571 12.3798 24.4019 15.12 24.4019 18.5C24.4019 21.88 21.6571 24.6202 18.2714 24.6202C14.8857 24.6202 12.1409 21.88 12.1409 18.5Z" fill="white"/>
</svg>
