<svg xmlns="http://www.w3.org/2000/svg" width="1512" height="982" fill="none"><path stroke="#fff" stroke-linecap="round" stroke-width="2" d="M797.193-784.075c22.411 34.193 36.856 112.465 107.572 164.129s173.735 13.772 231.865 83.857c58.14 70.085-11.35 182.832 47.19 252.551 58.53 69.719 170.04 17.14 233.79 82.1 63.74 64.96 17.66 156.327 72.19 229.707s130.61 53.164 189.54 122.516c58.94 69.353 31.22 143.954 93.36 210.378s149.2 36.177 204.93 108.458 49.54 188.807 62.58 238.493M-587.933 481.126c22.411 34.194 36.856 112.466 107.572 164.129 70.717 51.664 173.732 13.773 231.868 83.858s-11.353 182.832 47.183 252.551c58.537 69.716 170.045 17.14 233.791 82.096 63.747 64.96 17.665 156.33 72.193 229.71 54.529 73.38 130.607 53.16 189.544 122.52 58.937 69.35 31.211 143.95 93.355 210.37 62.143 66.43 149.203 36.18 204.934 108.46s49.537 188.81 62.574 238.5"/><path stroke="#fff" stroke-linecap="round" stroke-width="2" d="M-541.763 438.952c22.411 34.194 36.856 112.466 107.572 164.13s173.732 13.772 231.867 83.857c58.136 70.085-11.352 182.832 47.184 252.551 58.537 69.72 170.045 17.14 233.791 82.1s17.665 156.33 72.193 229.71c54.529 73.38 130.607 53.16 189.544 122.51 58.937 69.36 31.211 143.96 93.355 210.38 62.143 66.42 149.203 36.18 204.934 108.46s49.537 188.81 62.574 238.49"/><path stroke="#fff" stroke-linecap="round" stroke-width="2" d="M-495.592 396.779c22.411 34.194 36.856 112.466 107.573 164.13s173.731 13.772 231.867 83.857-11.353 182.832 47.184 252.551 170.044 17.14 233.791 82.1c63.746 64.963 17.664 156.323 72.192 229.703 54.529 73.38 130.607 53.17 189.544 122.52s31.211 143.95 93.355 210.38c62.143 66.42 149.203 36.17 204.934 108.46 55.731 72.28 49.538 188.8 62.574 238.49"/><path stroke="#fff" stroke-linecap="round" stroke-width="2" d="M-449.421 354.606c22.411 34.193 36.856 112.465 107.573 164.129s173.732 13.773 231.867 83.858c58.136 70.085-11.352 182.831 47.184 252.55s170.044 17.141 233.791 82.1c63.747 64.957 17.664 156.327 72.193 229.707s130.606 53.16 189.544 122.52c58.937 69.35 31.211 143.95 93.354 210.37 62.144 66.43 149.204 36.18 204.934 108.46 55.731 72.28 49.538 188.81 62.574 238.5"/><path stroke="#fff" stroke-linecap="round" stroke-width="2" d="M-403.25 312.432c22.411 34.194 36.856 112.466 107.573 164.13s173.732 13.772 231.867 83.857c58.136 70.085-11.352 182.832 47.184 252.551s170.044 17.14 233.791 82.1 17.664 156.33 72.193 229.71 130.606 53.16 189.544 122.51c58.937 69.36 31.211 143.96 93.354 210.38s149.203 36.18 204.934 108.46 49.538 188.81 62.574 238.49"/><path stroke="#fff" stroke-linecap="round" stroke-width="2" d="M-357.08 270.259c22.411 34.194 36.856 112.466 107.572 164.13s173.732 13.772 231.868 83.857-11.353 182.832 47.183 252.551 170.045 17.14 233.791 82.1 17.665 156.323 72.193 229.703c54.529 73.38 130.607 53.17 189.544 122.52s31.211 143.95 93.355 210.38c62.143 66.42 149.203 36.17 204.934 108.46 55.731 72.28 49.538 188.8 62.574 238.49"/><path stroke="#fff" stroke-linecap="round" stroke-width="2" d="M-310.908 228.086c22.411 34.193 36.856 112.465 107.573 164.129s173.731 13.772 231.867 83.857-11.353 182.832 47.184 252.551 170.044 17.141 233.791 82.1S327.171 967.05 381.7 1040.43s130.606 53.16 189.543 122.52c58.938 69.35 31.211 143.95 93.355 210.37 62.143 66.43 149.203 36.18 204.934 108.46s49.538 188.81 62.574 238.5"/><path stroke="#fff" stroke-linecap="round" stroke-width="2" d="M-264.737 185.912c22.411 34.194 36.856 112.466 107.573 164.13s173.731 13.772 231.867 83.857S63.35 616.731 121.887 686.45s170.044 17.14 233.79 82.1c63.747 64.96 17.665 156.327 72.193 229.707 54.529 73.383 130.607 53.163 189.544 122.513 58.937 69.36 31.211 143.96 93.355 210.38 62.143 66.42 149.203 36.18 204.934 108.46s49.538 188.81 62.574 238.49"/><path stroke="#fff" stroke-linecap="round" stroke-width="2" d="M-218.566 143.739c22.411 34.193 36.856 112.465 107.573 164.129s173.732 13.773 231.867 83.858c58.136 70.085-11.352 182.832 47.184 252.55s170.044 17.141 233.791 82.101c63.747 64.959 17.664 156.327 72.193 229.706 54.528 73.377 130.606 53.167 189.544 122.517 58.937 69.35 31.211 143.95 93.354 210.38 62.144 66.42 149.203 36.17 204.934 108.46 55.736 72.28 49.536 188.8 62.576 238.49"/><path stroke="#fff" stroke-linecap="round" stroke-width="2" d="M-172.396 101.565c22.411 34.194 36.856 112.466 107.573 164.13s173.732 13.772 231.867 83.857c58.136 70.085-11.353 182.832 47.184 252.551s170.044 17.14 233.791 82.1 17.664 156.327 72.193 229.707 130.606 53.163 189.544 122.52c58.937 69.35 31.211 143.95 93.354 210.37 62.144 66.43 149.203 36.18 204.93 108.46 55.74 72.28 49.54 188.81 62.58 238.5"/><path stroke="#fff" stroke-linecap="round" stroke-width="2" d="M-126.225 59.392c22.411 34.194 36.856 112.466 107.573 164.13s173.731 13.772 231.867 83.857-11.353 182.832 47.184 252.551 170.044 17.14 233.791 82.1 17.664 156.327 72.193 229.707S696.989 924.9 755.926 994.253c58.938 69.357 31.212 143.957 93.355 210.377s149.203 36.18 204.939 108.46c55.73 72.28 49.53 188.81 62.57 238.49"/><path stroke="#fff" stroke-linecap="round" stroke-width="2" d="M-80.054 17.219c22.411 34.193 36.856 112.465 107.573 164.129s173.731 13.772 231.867 83.857-11.353 182.832 47.184 252.551 170.044 17.14 233.791 82.1 17.664 156.327 72.193 229.707 130.606 53.164 189.543 122.516c58.938 69.351 31.211 143.951 93.355 210.381 62.143 66.42 149.208 36.17 204.938 108.46 55.73 72.28 49.53 188.8 62.57 238.49"/><path stroke="#fff" stroke-linecap="round" stroke-width="2" d="M-33.882-24.955C-11.472 9.24 2.974 87.511 73.69 139.175s173.731 13.772 231.867 83.857-11.353 182.832 47.184 252.551 170.044 17.14 233.79 82.1c63.747 64.96 17.665 156.327 72.193 229.707 54.529 73.38 130.607 53.163 189.544 122.516s31.211 143.954 93.355 210.374c62.146 66.43 149.206 36.18 204.936 108.46s49.54 188.81 62.57 238.49"/><path stroke="#fff" stroke-linecap="round" stroke-width="2" d="M12.288-67.128C34.698-32.935 49.144 45.337 119.86 97.002c70.716 51.663 173.731 13.772 231.867 83.857s-11.353 182.831 47.183 252.55 170.045 17.141 233.791 82.1 17.665 156.328 72.193 229.707c54.529 73.38 130.607 53.164 189.544 122.516s31.211 143.958 93.355 210.378c62.146 66.42 149.206 36.18 204.936 108.46s49.54 188.81 62.57 238.49"/><path stroke="#fff" stroke-linecap="round" stroke-width="2" d="M58.46-109.302C80.87-75.108 95.316 3.164 166.032 54.828S339.764 68.6 397.9 138.685s-11.353 182.832 47.183 252.551 170.045 17.14 233.791 82.1 17.665 156.327 72.193 229.707c54.529 73.38 130.607 53.163 189.544 122.516s31.211 143.954 93.359 210.381c62.14 66.42 149.2 36.17 204.93 108.46 55.73 72.28 49.54 188.8 62.57 238.49"/><path stroke="#fff" stroke-linecap="round" stroke-width="2" d="M104.63-151.475c22.411 34.194 36.856 112.465 107.572 164.13 70.717 51.663 173.732 13.772 231.868 83.857s-11.353 182.832 47.183 252.551 170.045 17.14 233.791 82.1 17.665 156.327 72.193 229.707c54.529 73.379 130.607 53.163 189.544 122.516 58.939 69.353 31.209 143.953 93.359 210.377 62.14 66.427 149.2 36.177 204.93 108.457s49.54 188.81 62.57 238.49"/><path stroke="#fff" stroke-linecap="round" stroke-width="2" d="M150.801-193.648c22.411 34.193 36.856 112.465 107.573 164.13 70.716 51.663 173.731 13.772 231.867 83.857s-11.353 182.832 47.184 252.55 170.044 17.141 233.791 82.1 17.664 156.328 72.193 229.707c54.528 73.38 130.606 53.164 189.541 122.517 58.94 69.352 31.21 143.953 93.36 210.377 62.14 66.42 149.2 36.177 204.93 108.46 55.73 72.28 49.54 188.81 62.58 238.49"/><path stroke="#fff" stroke-linecap="round" stroke-width="2" d="M196.972-235.822c22.411 34.194 36.856 112.466 107.573 164.13S478.276-57.92 536.412 12.165s-11.353 182.832 47.184 252.551 170.044 17.14 233.79 82.1c63.747 64.96 17.665 156.327 72.193 229.707 54.529 73.38 130.611 53.163 189.541 122.516 58.94 69.353 31.21 143.954 93.36 210.378 62.14 66.424 149.2 36.177 204.93 108.463 55.73 72.28 49.54 188.8 62.58 238.49"/><path stroke="#fff" stroke-linecap="round" stroke-width="2" d="M243.142-277.995c22.411 34.194 36.856 112.466 107.573 164.13 70.717 51.663 173.732 13.772 231.867 83.857 58.136 70.085-11.352 182.832 47.184 252.551s170.044 17.14 233.791 82.1S881.221 460.97 935.75 534.35s130.61 53.163 189.54 122.516c58.94 69.353 31.21 143.953 93.36 210.377 62.14 66.424 149.2 36.177 204.93 108.459 55.73 72.278 49.54 188.808 62.58 238.488"/><path stroke="#fff" stroke-linecap="round" stroke-width="2" d="M289.313-320.168c22.411 34.193 36.856 112.465 107.573 164.129s173.732 13.772 231.867 83.857C686.889-2.096 617.4 110.65 675.937 180.37s170.044 17.141 233.791 82.1 17.664 156.327 72.193 229.707 130.609 53.164 189.539 122.516c58.94 69.353 31.22 143.954 93.36 210.378s149.2 36.177 204.93 108.458 49.54 188.812 62.58 238.492"/><path stroke="#fff" stroke-linecap="round" stroke-width="2" d="M346.059-370.864c22.411 34.194 36.856 112.466 107.573 164.13s173.732 13.772 231.867 83.857c58.136 70.085-11.352 182.832 47.184 252.551s170.044 17.14 233.791 82.1 17.664 156.327 72.196 229.707c54.53 73.38 130.6 53.163 189.54 122.516s31.21 143.953 93.36 210.378c62.14 66.424 149.2 36.176 204.93 108.458s49.54 188.807 62.57 238.497"/><path stroke="#fff" stroke-linecap="round" stroke-width="2" d="M381.655-404.515c22.411 34.193 36.857 112.465 107.573 164.129 70.717 51.664 173.732 13.773 231.867 83.858 58.136 70.085-11.352 182.832 47.184 252.55s170.044 17.141 233.791 82.1c63.75 64.96 17.66 156.328 72.19 229.707 54.53 73.38 130.61 53.164 189.55 122.517 58.93 69.352 31.21 143.953 93.35 210.377s149.2 36.177 204.94 108.458c55.73 72.282 49.53 188.809 62.57 238.489"/><path stroke="#fff" stroke-linecap="round" stroke-width="2" d="M427.825-446.689c22.411 34.194 36.856 112.466 107.573 164.13s173.731 13.772 231.867 83.857-11.353 182.832 47.184 252.55c58.536 69.72 170.044 17.14 233.791 82.101 63.75 64.96 17.66 156.327 72.19 229.707s130.61 53.163 189.55 122.516c58.93 69.353 31.21 143.953 93.35 210.377s149.2 36.177 204.93 108.459c55.74 72.281 49.54 188.807 62.58 238.492"/><path stroke="#fff" stroke-linecap="round" stroke-width="2" d="M473.997-488.862c22.411 34.194 36.856 112.466 107.573 164.13s173.731 13.772 231.867 83.857-11.353 182.832 47.183 252.55c58.537 69.72 170.04 17.141 233.79 82.1 63.75 64.961 17.67 156.328 72.19 229.708 54.53 73.38 130.61 53.163 189.55 122.516s31.21 143.953 93.35 210.377c62.15 66.424 149.21 36.177 204.94 108.459 55.73 72.281 49.53 188.807 62.57 238.495"/><path stroke="#fff" stroke-linecap="round" stroke-width="2" d="M520.168-531.035c22.411 34.193 36.856 112.465 107.572 164.129s173.732 13.773 231.868 83.858-11.353 182.831 47.183 252.55 170.049 17.14 233.789 82.1c63.75 64.96 17.67 156.328 72.2 229.707 54.52 73.38 130.6 53.164 189.54 122.517s31.21 143.953 93.35 210.377c62.15 66.424 149.21 36.177 204.94 108.458s49.54 188.807 62.57 238.493"/><path stroke="#fff" stroke-linecap="round" stroke-width="2" d="M566.339-573.209c22.411 34.194 36.856 112.466 107.573 164.13s173.731 13.772 231.867 83.857-11.353 182.832 47.184 252.55C1011.5-2.951 1123.01-55.53 1186.75 9.43c63.75 64.96 17.67 156.327 72.2 229.707s130.6 53.163 189.54 122.516 31.21 143.953 93.36 210.378c62.14 66.424 149.2 36.176 204.93 108.458s49.54 188.807 62.57 238.493"/><path stroke="#fff" stroke-linecap="round" stroke-width="2" d="M612.509-615.383c22.411 34.194 36.857 112.466 107.573 164.13 70.717 51.664 173.732 13.772 231.867 83.857 58.141 70.085-11.352 182.832 47.184 252.551 58.537 69.72 170.047 17.14 233.787 82.1 63.75 64.96 17.67 156.327 72.2 229.707s130.6 53.163 189.54 122.516 31.21 143.954 93.36 210.378c62.14 66.424 149.2 36.177 204.93 108.458s49.54 188.807 62.57 238.493"/><path stroke="#fff" stroke-linecap="round" stroke-width="2" d="M658.68-657.556c22.411 34.194 36.857 112.466 107.573 164.13 70.717 51.664 173.732 13.772 231.867 83.857 58.14 70.085-11.352 182.832 47.18 252.551 58.54 69.719 170.05 17.14 233.79 82.1 63.75 64.96 17.67 156.327 72.2 229.707s130.6 53.163 189.54 122.516 31.21 143.954 93.36 210.378c62.14 66.424 149.2 36.177 204.93 108.458s49.54 188.807 62.57 238.493"/><path stroke="#fff" stroke-linecap="round" stroke-width="2" d="M704.852-699.729c22.411 34.194 36.856 112.466 107.573 164.13s173.731 13.772 231.865 83.857c58.14 70.085-11.35 182.832 47.19 252.551 58.53 69.719 170.04 17.14 233.79 82.1 63.74 64.96 17.66 156.327 72.19 229.707s130.61 53.163 189.54 122.516c58.94 69.353 31.21 143.953 93.36 210.377 62.14 66.424 149.2 36.177 204.93 108.459 55.73 72.281 49.54 188.807 62.58 238.493"/><path stroke="#fff" stroke-linecap="round" stroke-width="2" d="M751.023-741.902c22.411 34.194 36.856 112.466 107.572 164.129 70.717 51.664 173.735 13.773 231.865 83.858 58.14 70.085-11.35 182.832 47.19 252.551 58.53 69.718 170.04 17.14 233.79 82.1 63.74 64.96 17.66 156.327 72.19 229.707s130.61 53.163 189.54 122.516c58.94 69.353 31.22 143.953 93.36 210.377s149.2 36.177 204.93 108.459c55.73 72.281 49.54 188.807 62.58 238.493"/></svg>