<svg width="868" height="66" viewBox="0 0 868 66" fill="none" xmlns="http://www.w3.org/2000/svg">
<g clip-path="url(#clip0_17_53)">
<path d="M565.235 -313.988C574.474 -300.167 581.083 -268.96 609.579 -247.648C638.075 -226.336 678.267 -240.162 702.015 -211.692C725.763 -183.221 699.668 -139.321 723.57 -110.991C747.471 -82.6612 790.842 -102.212 816.744 -75.709C842.645 -49.2058 825.533 -13.5105 847.897 16.2243C870.26 45.9591 900.033 38.8287 924.089 67.0179C948.144 95.2071 938.077 124.467 963.364 151.533C988.65 178.598 1022.64 167.617 1045.46 196.931C1068.29 226.244 1067.2 272.381 1072.92 292.236" stroke="white" stroke-width="2" stroke-linecap="round"/>
<path d="M139.947 74.478C149.186 88.299 155.796 119.507 184.291 140.818C212.787 162.13 252.979 148.305 276.727 176.775C300.475 205.245 274.38 249.146 298.282 277.476C322.183 305.805 365.554 286.254 391.456 312.757C417.357 339.261 400.245 374.956 422.609 404.691C444.972 434.425 474.745 427.295 498.801 455.484C522.857 483.674 512.79 512.934 538.076 539.999C563.362 567.064 597.35 556.084 620.175 585.397C643 614.71 641.915 660.847 647.636 680.703" stroke="white" stroke-width="2" stroke-linecap="round"/>
<path d="M157.668 58.2919C166.906 72.1129 173.516 103.321 202.012 124.632C230.508 145.944 270.7 132.118 294.447 160.589C318.195 189.059 292.1 232.96 316.002 261.289C339.904 289.619 383.275 270.068 409.176 296.571C435.078 323.075 417.966 358.77 440.329 388.505C462.693 418.239 492.466 411.109 516.521 439.298C540.577 467.487 530.51 496.748 555.796 523.813C581.082 550.878 615.07 539.898 637.895 569.211C660.72 598.524 659.635 644.661 665.356 664.516" stroke="white" stroke-width="2" stroke-linecap="round"/>
<path d="M175.388 42.1058C184.626 55.9268 191.236 87.1344 219.732 108.446C248.228 129.758 288.42 115.932 312.168 144.403C335.916 172.873 309.82 216.774 333.722 245.103C357.624 273.433 400.995 253.882 426.896 280.385C452.798 306.888 435.686 342.584 458.049 372.319C480.413 402.053 510.186 394.923 534.242 423.112C558.297 451.301 548.23 480.562 573.516 507.627C598.803 534.692 632.79 523.712 655.615 553.025C678.44 582.338 677.355 628.475 683.077 648.33" stroke="white" stroke-width="2" stroke-linecap="round"/>
<path d="M193.108 25.9197C202.347 39.7407 208.957 70.9483 237.452 92.2602C265.948 113.572 306.14 99.7463 329.888 128.217C353.636 156.687 327.541 200.588 351.443 228.917C375.344 257.247 418.715 237.696 444.617 264.199C470.518 290.702 453.406 326.398 475.77 356.132C498.133 385.867 527.906 378.737 551.962 406.926C576.018 435.115 565.951 464.375 591.237 491.441C616.523 518.506 650.511 507.526 673.336 536.839C696.161 566.152 695.076 612.289 700.797 632.144" stroke="white" stroke-width="2" stroke-linecap="round"/>
<path d="M210.829 9.73364C220.067 23.5546 226.677 54.7622 255.173 76.0741C283.669 97.3859 323.861 83.5602 347.608 112.03C371.356 140.501 345.261 184.401 369.163 212.731C393.065 241.061 436.436 221.51 462.337 248.013C488.239 274.516 471.127 310.212 493.49 339.946C515.854 369.681 545.627 362.551 569.682 390.74C593.738 418.929 583.671 448.189 608.957 475.255C634.243 502.32 668.231 491.34 691.056 520.653C713.881 549.966 712.796 596.103 718.517 615.958" stroke="white" stroke-width="2" stroke-linecap="round"/>
<path d="M228.549 -6.45245C237.787 7.36847 244.397 38.5761 272.893 59.888C301.389 81.1998 341.581 67.3741 365.329 95.8443C389.077 124.315 362.981 168.215 386.883 196.545C410.785 224.875 454.156 205.324 480.057 231.827C505.959 258.33 488.847 294.025 511.21 323.76C533.574 353.495 563.347 346.365 587.403 374.554C611.458 402.743 601.391 432.003 626.677 459.068C651.964 486.134 685.951 475.153 708.776 504.467C731.601 533.78 730.516 579.917 736.238 599.772" stroke="white" stroke-width="2" stroke-linecap="round"/>
<path d="M246.269 -22.6385C255.508 -8.81763 262.118 22.3901 290.613 43.7019C319.109 65.0137 359.301 51.188 383.049 79.6582C406.797 108.128 380.702 152.029 404.604 180.359C428.505 208.689 471.876 189.138 497.778 215.641C523.679 242.144 506.567 277.839 528.931 307.574C551.294 337.309 581.067 330.179 605.123 358.368C629.179 386.557 619.112 415.817 644.398 442.882C669.684 469.948 703.672 458.967 726.497 488.281C749.322 517.594 748.237 563.731 753.958 583.586" stroke="white" stroke-width="2" stroke-linecap="round"/>
<path d="M263.99 -38.8247C273.228 -25.0038 279.838 6.2039 308.334 27.5157C336.829 48.8276 377.021 35.0018 400.769 63.4721C424.517 91.9423 398.422 135.843 422.324 164.173C446.226 192.503 489.597 172.952 515.498 199.455C541.4 225.958 524.288 261.653 546.651 291.388C569.015 321.123 598.788 313.992 622.843 342.182C646.899 370.371 636.832 399.631 662.118 426.696C687.404 453.761 721.392 442.781 744.217 472.094C767.042 501.408 765.957 547.545 771.678 567.4" stroke="white" stroke-width="2" stroke-linecap="round"/>
<path d="M281.71 -55.0108C290.948 -41.1899 297.558 -9.9822 326.054 11.3296C354.55 32.6415 394.742 18.8157 418.49 47.286C442.238 75.7562 416.142 119.657 440.044 147.987C463.946 176.316 507.317 156.765 533.218 183.269C559.12 209.772 542.008 245.467 564.371 275.202C586.735 304.937 616.508 297.806 640.564 325.995C664.619 354.185 654.552 383.445 679.838 410.51C705.125 437.575 739.112 426.595 761.937 455.908C784.762 485.222 783.677 531.358 789.399 551.214" stroke="white" stroke-width="2" stroke-linecap="round"/>
<path d="M299.43 -71.1969C308.669 -57.376 315.279 -26.1683 343.774 -4.85647C372.27 16.4554 412.462 2.62964 436.21 31.0999C459.958 59.5701 433.863 103.471 457.765 131.801C481.666 160.13 525.037 140.579 550.939 167.083C576.84 193.586 559.728 229.281 582.092 259.016C604.455 288.751 634.228 281.62 658.284 309.809C682.34 337.999 672.273 367.259 697.559 394.324C722.845 421.389 756.833 410.409 779.658 439.722C802.483 469.035 801.398 515.172 807.119 535.028" stroke="white" stroke-width="2" stroke-linecap="round"/>
<path d="M317.151 -87.383C326.389 -73.5621 332.999 -42.3544 361.495 -21.0426C389.99 0.269264 430.182 -13.5565 453.93 14.9138C477.678 43.384 451.583 87.2848 475.485 115.615C499.387 143.944 542.758 124.393 568.659 150.896C594.561 177.4 577.449 213.095 599.812 242.83C622.176 272.564 651.949 265.434 676.004 293.623C700.06 321.812 689.993 351.073 715.279 378.138C740.565 405.203 774.553 394.223 797.378 423.536C820.203 452.849 819.118 498.986 824.839 518.842" stroke="white" stroke-width="2" stroke-linecap="round"/>
<path d="M334.871 -103.569C344.109 -89.7482 350.719 -58.5405 379.215 -37.2287C407.711 -15.9168 447.903 -29.7426 471.651 -1.27233C495.399 27.1979 469.303 71.0987 493.205 99.4284C517.107 127.758 560.478 108.207 586.379 134.71C612.281 161.213 595.169 196.909 617.532 226.644C639.896 256.378 669.669 249.248 693.725 277.437C717.78 305.626 707.713 334.887 732.999 361.952C758.286 389.017 792.273 378.037 815.098 407.35C837.923 436.663 836.838 482.8 842.56 502.655" stroke="white" stroke-width="2" stroke-linecap="round"/>
<path d="M352.591 -119.755C361.83 -105.934 368.44 -74.7266 396.935 -53.4148C425.431 -32.1029 465.623 -45.9286 489.371 -17.4584C513.119 11.0118 487.024 54.9126 510.926 83.2423C534.827 111.572 578.198 92.0211 604.1 118.524C630.001 145.027 612.889 180.723 635.253 210.458C657.616 240.192 687.389 233.062 711.445 261.251C735.5 289.44 725.434 318.701 750.72 345.766C776.006 372.831 809.994 361.851 832.819 391.164C855.644 420.477 854.559 466.614 860.28 486.469" stroke="white" stroke-width="2" stroke-linecap="round"/>
<path d="M370.312 -135.941C379.55 -122.12 386.16 -90.9127 414.656 -69.6009C443.151 -48.289 483.343 -62.1147 507.091 -33.6445C530.839 -5.1743 504.744 38.7265 528.646 67.0562C552.548 95.3859 595.919 75.835 621.82 102.338C647.722 128.841 630.609 164.537 652.973 194.271C675.337 224.006 705.11 216.876 729.165 245.065C753.221 273.254 743.154 302.514 768.44 329.58C793.726 356.645 827.714 345.665 850.539 374.978C873.364 404.291 872.279 450.428 878 470.283" stroke="white" stroke-width="2" stroke-linecap="round"/>
<path d="M388.032 -152.127C397.27 -138.306 403.88 -107.099 432.376 -85.7869C460.872 -64.4751 501.064 -78.3008 524.812 -49.8306C548.56 -21.3604 522.464 22.5404 546.366 50.8701C570.268 79.1998 613.639 59.6489 639.54 86.152C665.442 112.655 648.33 148.351 670.693 178.085C693.057 207.82 722.83 200.69 746.886 228.879C770.941 257.068 760.874 286.328 786.16 313.394C811.447 340.459 845.434 329.479 868.259 358.792C891.084 388.105 889.999 434.242 895.721 454.097" stroke="white" stroke-width="2" stroke-linecap="round"/>
<path d="M405.752 -168.313C414.991 -154.493 421.6 -123.285 450.096 -101.973C478.592 -80.6612 518.784 -94.4869 542.532 -66.0167C566.28 -37.5465 540.185 6.35431 564.087 34.684C587.988 63.0137 631.359 43.4628 657.261 69.9659C683.162 96.4691 666.05 132.164 688.414 161.899C710.777 191.634 740.55 184.504 764.606 212.693C788.661 240.882 778.594 270.142 803.881 297.207C829.167 324.273 863.155 313.292 885.98 342.606C908.805 371.919 907.72 418.056 913.441 437.911" stroke="white" stroke-width="2" stroke-linecap="round"/>
<path d="M423.472 -184.5C432.711 -170.679 439.321 -139.471 467.817 -118.159C496.312 -96.8473 536.504 -110.673 560.252 -82.2028C584 -53.7326 557.905 -9.83179 581.807 18.4979C605.709 46.8276 649.08 27.2767 674.981 53.7798C700.883 80.283 683.77 115.978 706.134 145.713C728.498 175.448 758.271 168.317 782.326 196.507C806.382 224.696 796.315 253.956 821.601 281.021C846.887 308.087 880.875 297.106 903.7 326.42C926.525 355.733 925.44 401.87 931.161 421.725" stroke="white" stroke-width="2" stroke-linecap="round"/>
<path d="M441.193 -200.686C450.431 -186.865 457.041 -155.657 485.537 -134.345C514.033 -113.033 554.225 -126.859 577.973 -98.3889C601.721 -69.9187 575.625 -26.0179 599.527 2.31183C623.429 30.6416 666.8 11.0906 692.701 37.5937C718.603 64.0969 701.491 99.7923 723.854 129.527C746.218 159.262 775.991 152.131 800.047 180.321C824.102 208.51 814.035 237.77 839.321 264.835C864.608 291.9 898.595 280.92 921.42 310.233C944.245 339.547 943.16 385.684 948.882 405.539" stroke="white" stroke-width="2" stroke-linecap="round"/>
<path d="M458.913 -216.872C468.152 -203.051 474.761 -171.843 503.257 -150.531C531.753 -129.22 571.945 -143.045 595.693 -114.575C619.441 -86.1048 593.346 -42.204 617.248 -13.8743C641.149 14.4555 684.52 -5.09551 710.422 21.4076C736.323 47.9108 719.211 83.6062 741.575 113.341C763.938 143.076 793.711 135.945 817.767 164.135C841.822 192.324 831.755 221.584 857.042 248.649C882.328 275.714 916.316 264.734 939.141 294.047C961.966 323.361 960.881 369.497 966.602 389.353" stroke="white" stroke-width="2" stroke-linecap="round"/>
<path d="M476.633 -233.058C485.872 -219.237 492.482 -188.029 520.978 -166.717C549.473 -145.406 589.665 -159.231 613.413 -130.761C637.161 -102.291 611.066 -58.3901 634.968 -30.0604C658.87 -1.7307 702.241 -21.2817 728.142 5.22149C754.044 31.7247 736.931 67.42 759.295 97.1548C781.659 126.89 811.432 119.759 835.487 147.948C859.543 176.138 849.476 205.398 874.762 232.463C900.048 259.528 934.036 248.548 956.861 277.861C979.686 307.174 978.601 353.311 984.322 373.167" stroke="white" stroke-width="2" stroke-linecap="round"/>
<path d="M494.354 -249.244C503.592 -235.423 510.202 -204.215 538.698 -182.904C567.194 -161.592 607.386 -175.417 631.134 -146.947C654.882 -118.477 628.786 -74.5762 652.688 -46.2465C676.59 -17.9168 719.961 -37.4678 745.862 -10.9646C771.764 15.5386 754.652 51.2339 777.015 80.9687C799.379 110.703 829.152 103.573 853.208 131.762C877.263 159.951 867.196 189.212 892.482 216.277C917.769 243.342 951.756 232.362 974.581 261.675C997.406 290.988 996.321 337.125 1002.04 356.981" stroke="white" stroke-width="2" stroke-linecap="round"/>
<path d="M512.074 -265.43C521.313 -251.609 527.922 -220.402 556.418 -199.09C584.914 -177.778 625.106 -191.604 648.854 -163.133C672.602 -134.663 646.507 -90.7623 670.409 -62.4326C694.31 -34.1029 737.681 -53.6539 763.583 -27.1507C789.484 -0.647538 772.372 35.0478 794.736 64.7826C817.099 94.5174 846.872 87.3869 870.928 115.576C894.983 143.765 884.916 173.026 910.203 200.091C935.489 227.156 969.477 216.176 992.302 245.489C1015.13 274.802 1014.04 320.939 1019.76 340.794" stroke="white" stroke-width="2" stroke-linecap="round"/>
<path d="M529.794 -281.616C539.033 -267.795 545.643 -236.588 574.139 -215.276C602.634 -193.964 642.826 -207.79 666.574 -179.319C690.322 -150.849 664.227 -106.948 688.129 -78.6187C712.031 -50.289 755.402 -69.84 781.303 -43.3368C807.205 -16.8336 790.092 18.8617 812.456 48.5965C834.82 78.3313 864.593 71.2008 888.648 99.3901C912.704 127.579 902.637 156.84 927.923 183.905C953.209 210.97 987.197 199.99 1010.02 229.303C1032.85 258.616 1031.76 304.753 1037.48 324.608" stroke="white" stroke-width="2" stroke-linecap="round"/>
<path d="M547.515 -297.802C556.753 -283.981 563.363 -252.774 591.859 -231.462C620.355 -210.15 660.547 -223.976 684.295 -195.505C708.043 -167.035 681.947 -123.134 705.849 -94.8047C729.751 -66.475 773.122 -86.026 799.023 -59.5228C824.925 -33.0197 807.813 2.67569 830.176 32.4105C852.54 62.1452 882.313 55.0148 906.369 83.204C930.424 111.393 920.357 140.654 945.643 167.719C970.93 194.784 1004.92 183.804 1027.74 213.117C1050.57 242.43 1049.48 288.567 1055.2 308.422" stroke="white" stroke-width="2" stroke-linecap="round"/>
</g>
<defs>
<clipPath id="clip0_17_53">
<rect width="800" height="800" fill="white" transform="translate(590.678 -344) rotate(47.5908)"/>
</clipPath>
</defs>
</svg>
